<?xml version="1.0" encoding="UTF-8" standalone="no" ?>
<!DOCTYPE svg PUBLIC "-//W3C//DTD SVG 1.1//EN" "http://www.w3.org/Graphics/SVG/1.1/DTD/svg11.dtd">
<svg xmlns="http://www.w3.org/2000/svg" xmlns:xlink="http://www.w3.org/1999/xlink" version="1.1" width="1080" height="1080" viewBox="0 0 1080 1080" xml:space="preserve">
<desc>Created with Fabric.js 5.2.4</desc>
<defs>
</defs>
<rect x="0" y="0" width="100%" height="100%" fill="transparent"></rect>
<g transform="matrix(1 0 0 1 540 540)" id="3fc40a5f-3db0-49af-8bf0-191b21a0f80d"  >
<rect style="stroke: none; stroke-width: 1; stroke-dasharray: none; stroke-linecap: butt; stroke-dashoffset: 0; stroke-linejoin: miter; stroke-miterlimit: 4; fill: rgb(73,68,255); fill-rule: nonzero; opacity: 1;" vector-effect="non-scaling-stroke"  x="-540" y="-540" rx="0" ry="0" width="1080" height="1080" />
</g>
<g transform="matrix(1 0 0 1 540 540)" id="edc473bc-aa65-49f6-9dd5-24aab5d1a75c"  >
</g>
<g transform="matrix(2.48 0 0 2.48 540 540)" id="XMLID_92_"  >
<path style="stroke: rgb(0,0,0); stroke-width: 0; stroke-dasharray: none; stroke-linecap: butt; stroke-dashoffset: 0; stroke-linejoin: miter; stroke-miterlimit: 4; fill: rgb(0,0,0); fill-rule: nonzero; opacity: 1;" vector-effect="non-scaling-stroke"  transform=" translate(-152.5, -152.5)" d="M 274.659 244.888 C 265.715 241.225 261.889 236.364 262.259 229.11100000000002 C 262.64 220.645 257.837 214.44400000000002 255.556 211.99400000000003 C 256.934 206.73000000000002 260.961 188.52000000000004 255.56 172.70300000000003 C 249.756 155.77300000000002 232.036 129.91600000000003 213.752 104.49900000000004 C 206.267 94.06100000000004 205.913 82.71500000000003 205.50400000000002 69.57700000000004 C 205.11200000000002 57.04600000000004 204.67000000000002 42.84200000000004 197.68200000000002 27.052000000000042 C 190.084 9.859 174.838 0 155.851 0 C 144.556 0 132.962 3.53 124.03999999999999 9.684 C 105.77 22.293 108.18499999999999 49.784 109.78299999999999 67.975 C 110.00199999999998 70.466 110.20799999999998 72.81899999999999 110.32799999999999 74.82799999999999 C 111.392 92.64399999999999 110.42399999999999 102.03399999999999 109.15799999999999 104.88799999999999 C 108.33899999999998 106.75299999999999 104.30699999999999 112.06099999999999 100.03999999999999 117.68099999999998 C 95.627 123.49299999999998 90.624 130.081 86.523 136.21999999999997 C 81.63 143.60699999999997 77.67999999999999 154.89799999999997 73.86 165.81699999999998 C 71.065 173.807 68.425 181.35399999999998 65.855 185.86399999999998 C 60.984 194.53999999999996 62.196000000000005 202.62999999999997 63.208000000000006 206.36899999999997 C 61.364000000000004 207.64999999999998 58.7 210.17199999999997 56.45100000000001 214.92599999999996 C 53.733000000000004 220.72599999999997 48.218 223.84299999999996 36.75000000000001 226.04799999999994 C 31.480000000000008 227.12599999999995 27.846000000000007 229.34199999999996 25.946000000000005 232.63399999999996 C 23.181000000000004 237.42499999999995 24.687000000000005 243.44499999999996 26.061000000000003 247.55899999999997 C 28.091000000000005 253.60699999999997 26.826000000000004 257.43499999999995 24.526000000000003 264.385 C 23.996000000000002 265.989 23.395000000000003 267.805 22.786000000000005 269.808 C 21.827000000000005 272.969 22.173000000000005 275.843 23.812000000000005 278.34999999999997 C 28.143000000000004 284.97099999999995 40.781000000000006 287.306 53.791000000000004 288.842 C 61.559000000000005 289.764 70.061 292.871 78.284 295.877 C 86.34100000000001 298.821 94.67200000000001 301.866 102.245 302.79 C 103.396 302.935 104.536 303.00800000000004 105.635 303.00800000000004 C 117.069 303.00800000000004 122.23500000000001 295.42100000000005 123.873 292.30400000000003 C 127.98 291.466 142.145 288.78200000000004 156.744 288.422 C 171.32 288.00600000000003 185.423 290.884 189.418 291.77900000000005 C 190.674 294.18300000000005 193.985 299.67400000000004 199.263 302.50300000000004 C 202.16400000000002 304.08900000000006 206.201 304.99800000000005 210.336 304.99800000000005 C 210.33700000000002 304.99800000000005 210.336 304.99800000000005 210.33700000000002 304.99800000000005 C 214.75300000000001 304.99800000000005 223.15400000000002 303.95400000000006 229.80300000000003 296.95900000000006 C 236.43500000000003 289.93100000000004 253.00500000000002 280.95900000000006 265.105 274.4080000000001 C 267.805 272.9460000000001 270.331 271.5780000000001 272.546 270.3430000000001 C 279.343 266.5750000000001 283.052 261.1910000000001 282.721 255.57200000000006 C 282.445 250.905 279.356 246.811 274.659 244.888 z M 124.189 243.535 C 123.34299999999999 237.575 115.67599999999999 231.664 106.797 224.82 C 99.53699999999999 219.22299999999998 91.30799999999999 212.88 89.041 207.50799999999998 C 84.356 196.426 88.04899999999999 176.93999999999997 94.488 166.90599999999998 C 97.67 161.88199999999998 100.269 154.26299999999998 102.783 146.89499999999998 C 105.497 138.939 108.304 130.713 111.443 127.11199999999998 C 116.414 121.48999999999998 121.008 110.55099999999999 121.822 101.92999999999998 C 126.477 106.37399999999998 133.698 112.01299999999998 140.369 112.01299999999998 C 141.396 112.01299999999998 142.393 111.87899999999998 143.346 111.60999999999997 C 147.91 110.29199999999997 154.623 106.41299999999997 161.115 102.66299999999997 C 166.71200000000002 99.42899999999997 173.614 95.44099999999997 176.211 95.07799999999997 C 180.66400000000002 101.47199999999998 206.53900000000002 158.73299999999998 209.18300000000002 177.12199999999996 C 211.27500000000003 191.67199999999997 209.06500000000003 203.69999999999996 207.954 208.41099999999994 C 207.06 208.28899999999993 205.994 208.18999999999994 204.874 208.18999999999994 C 197.667 208.18999999999994 195.759 212.12399999999994 195.262 214.47299999999993 C 193.984 220.57599999999994 193.849 240.09099999999992 193.835 244.47599999999994 C 191.229 247.78699999999995 178.05 263.37899999999996 159.12900000000002 266.18199999999996 C 151.42200000000003 267.30199999999996 144.22500000000002 267.86999999999995 137.73900000000003 267.86999999999995 C 132.19500000000002 267.86999999999995 128.65700000000004 267.44199999999995 127.18800000000003 267.21899999999994 L 117.68000000000004 256.3399999999999 C 121.429 254.489 125.177 250.583 124.189 243.535 z M 136.254 64.149 C 135.957 64.277 135.665 64.414 135.378 64.56 C 135.349 63.916000000000004 135.28199999999998 63.263000000000005 135.17899999999997 62.608000000000004 C 134.14099999999996 56.633 130.17899999999997 52.29600000000001 125.75999999999998 52.29600000000001 C 125.43299999999998 52.29600000000001 125.10399999999997 52.321000000000005 124.74299999999998 52.376000000000005 C 122.11399999999998 52.81400000000001 120.05199999999998 54.789 118.92199999999998 57.589000000000006 C 119.91299999999998 51.44500000000001 123.39399999999998 46.89600000000001 127.52399999999999 46.89600000000001 C 132.374 46.89600000000001 136.47099999999998 53.43200000000001 136.47099999999998 61.168000000000006 C 136.471 62.143 136.4 63.113 136.254 64.149 z M 173.94 68.756 C 174.384 67.342 174.624 65.812 174.624 64.224 C 174.624 57.21 170.174 51.715 164.493 51.715 C 158.941 51.715 154.424 57.326 154.424 64.224 C 154.424 64.694 154.447 65.165 154.491 65.635 C 154.197 65.522 153.91000000000003 65.412 153.63000000000002 65.30600000000001 C 152.991 63.37100000000001 152.66800000000003 61.35200000000001 152.66800000000003 59.29100000000001 C 152.66800000000003 50.90400000000001 158.02800000000005 44.08000000000001 164.61800000000002 44.08000000000001 C 171.20700000000002 44.08000000000001 176.568 50.90400000000001 176.568 59.29100000000001 C 176.568 62.78 175.605 66.11 173.94 68.756 z M 169.081 85.08 C 168.986 85.504 168.784 85.692 166.54999999999998 86.854 C 165.422 87.441 164.01799999999997 88.172 162.261 89.242 L 161.087 89.953 C 156.369 92.813 145.322 99.512 142.32299999999998 99.905 C 140.28599999999997 100.179 139.02599999999998 99.389 136.19299999999998 97.464 C 135.55399999999997 97.029 134.874 96.567 134.14899999999997 96.102 C 129.04199999999997 92.751 125.75699999999998 89.06 125.38599999999997 87.617 C 127.05099999999997 86.33 131.17799999999997 83.10900000000001 133.29099999999997 81.202 C 137.57999999999996 77.214 141.89599999999996 74.53399999999999 144.03199999999998 74.53399999999999 C 144.14499999999998 74.53399999999999 144.24699999999999 74.54199999999999 144.35299999999998 74.562 C 146.86299999999997 75.005 153.05399999999997 77.476 157.576 79.28 C 159.666 80.114 161.471 80.834 162.74099999999999 81.29 C 166.742 82.664 168.828 84.422 169.081 85.08 z M 205.028 271.45 C 207.285 261.269 209.885 247.41899999999998 209.464 239.254 C 209.367 237.399 209.203 235.38 209.044 233.428 C 208.747 229.778 208.306 224.353 208.76100000000002 222.744 C 208.85100000000003 222.702 208.95100000000002 222.666 209.062 222.635 C 209.08100000000002 227.303 210.095 236.61399999999998 217.541 239.861 C 219.76 240.82899999999998 222.296 241.319 225.078 241.319 C 232.537 241.319 240.813 237.66 244.203 234.26999999999998 C 246.199 232.27399999999997 247.87800000000001 229.832 249.054 227.89799999999997 C 249.311 228.65099999999995 249.469 229.63499999999996 249.386 230.90299999999996 C 248.94299999999998 237.78799999999995 252.289 246.92199999999997 258.657 250.28799999999995 L 259.584 250.77499999999995 C 261.852 251.96499999999995 267.876 255.12799999999996 267.973 256.62799999999993 C 267.97200000000004 256.6289999999999 267.922 256.80499999999995 267.586 257.1169999999999 C 266.077 258.4959999999999 260.766 261.2079999999999 255.63000000000002 263.8309999999999 C 246.51900000000003 268.4829999999999 236.19200000000004 273.7559999999999 231.55400000000003 278.6339999999999 C 225.02400000000003 285.5059999999999 217.63800000000003 290.1219999999999 213.17800000000003 290.1219999999999 C 212.64100000000002 290.1219999999999 212.15200000000002 290.0539999999999 211.717 289.9159999999999 C 206.873 288.406 202.886 281.417 205.028 271.45 z M 39.917 245.477 C 39.423 243.165 39.033 241.34 39.452 239.572 C 39.756 238.262 46.223 236.858 48.985 236.25900000000001 C 52.868 235.41600000000003 56.884 234.54500000000002 59.51 232.95100000000002 C 63.061 230.8 64.984 226.83300000000003 66.67999999999999 223.33300000000003 C 67.90799999999999 220.80200000000002 69.17599999999999 218.18500000000003 70.68499999999999 217.32600000000002 C 70.76999999999998 217.276 70.89999999999999 217.21800000000002 71.14799999999998 217.21800000000002 C 73.97499999999998 217.21800000000002 79.90699999999998 223.16100000000003 83.32499999999999 228.48000000000002 C 84.192 229.82100000000003 85.79799999999999 232.508 87.65599999999999 235.61900000000003 C 93.213 244.91700000000003 100.82199999999999 257.65200000000004 104.79599999999999 261.92 C 108.377 265.757 114.17399999999999 273.134 112.74799999999999 279.461 C 111.704 284.37 106.14599999999999 288.362 104.835 289.245 C 104.359 289.353 103.77 289.408 103.077 289.408 C 95.471 289.408 80.41499999999999 283.08000000000004 72.326 279.68 L 71.12899999999999 279.177 C 66.612 277.283 59.23799999999999 276.09000000000003 52.10699999999999 274.93600000000004 C 46.43299999999999 274.01700000000005 38.66299999999999 272.76000000000005 37.37499999999999 271.624 C 36.330999999999996 270.45300000000003 37.541999999999994 266.646 38.60999999999999 263.28700000000003 C 39.37899999999999 260.87300000000005 40.172999999999995 258.377 40.60799999999999 255.76400000000004 C 41.225 251.596 40.499 248.203 39.917 245.477 z" stroke-linecap="round" />
</g>
</svg>