<?xml version="1.0" encoding="UTF-8" standalone="no" ?>
<!DOCTYPE svg PUBLIC "-//W3C//DTD SVG 1.1//EN" "http://www.w3.org/Graphics/SVG/1.1/DTD/svg11.dtd">
<svg xmlns="http://www.w3.org/2000/svg" xmlns:xlink="http://www.w3.org/1999/xlink" version="1.1" width="1080" height="1080" viewBox="0 0 1080 1080" xml:space="preserve">
<desc>Created with Fabric.js 5.2.4</desc>
<defs>
</defs>
<rect x="0" y="0" width="100%" height="100%" fill="transparent"></rect>
<g transform="matrix(1 0 0 1 540 540)" id="3fc40a5f-3db0-49af-8bf0-191b21a0f80d"  >
<rect style="stroke: none; stroke-width: 1; stroke-dasharray: none; stroke-linecap: butt; stroke-dashoffset: 0; stroke-linejoin: miter; stroke-miterlimit: 4; fill: rgb(73,68,255); fill-rule: nonzero; opacity: 1;" vector-effect="non-scaling-stroke"  x="-540" y="-540" rx="0" ry="0" width="1080" height="1080" />
</g>
<g transform="matrix(1 0 0 1 540 540)" id="edc473bc-aa65-49f6-9dd5-24aab5d1a75c"  >
</g>
<g transform="matrix(17.56 0 0 17.56 540 540)" id="a6f6b0f1-d773-4b62-951e-6c79378a4bd3"  >
<path style="stroke: rgb(0,0,0); stroke-width: 0; stroke-dasharray: none; stroke-linecap: butt; stroke-dashoffset: 0; stroke-linejoin: miter; stroke-miterlimit: 4; fill: rgb(0,0,0); fill-rule: nonzero; opacity: 1;" vector-effect="non-scaling-stroke"  transform=" translate(-25, -25)" d="M 25 12 C 11.542969 12 1 17.710938 1 25 C 1 32.289063 11.542969 38 25 38 C 38.457031 38 49 32.289063 49 25 C 49 17.710938 38.457031 12 25 12 Z M 22.507813 16 L 25.128906 16 L 24.296875 20 L 26.636719 20 C 28.121094 20 29.117188 20.207031 29.683594 20.726563 C 30.238281 21.238281 30.40625 22.078125 30.183594 23.222656 L 29.144531 28 L 26.480469 28 L 27.4375 23.582031 C 27.554688 22.976563 27.507813 22.554688 27.304688 22.332031 C 27.101563 22.109375 26.65625 22 25.988281 22 L 23.890625 22 L 22.625 28 L 20 28 Z M 11 20 L 16.332031 20 C 18.875 20 20.414063 21.703125 19.8125 24.246094 C 19.113281 27.199219 17.238281 28 13.792969 28 L 12.144531 28 L 11.621094 31 L 8.972656 31 Z M 32 20 L 37.332031 20 C 39.875 20 41.414063 21.703125 40.8125 24.246094 C 40.113281 27.199219 38.238281 28 34.792969 28 L 33.144531 28 L 32.621094 31 L 29.972656 31 Z M 13.269531 22 L 12.515625 26 L 14.226563 26 C 15.707031 26 17.082031 25.832031 17.3125 23.625 C 17.398438 22.769531 17.042969 22 15.332031 22 Z M 34.269531 22 L 33.515625 26 L 35.226563 26 C 36.707031 26 38.082031 25.832031 38.3125 23.625 C 38.398438 22.769531 38.042969 22 36.332031 22 Z" stroke-linecap="round" />
</g>
</svg>