<?xml version="1.0" encoding="UTF-8" standalone="no" ?>
<!DOCTYPE svg PUBLIC "-//W3C//DTD SVG 1.1//EN" "http://www.w3.org/Graphics/SVG/1.1/DTD/svg11.dtd">
<svg xmlns="http://www.w3.org/2000/svg" xmlns:xlink="http://www.w3.org/1999/xlink" version="1.1" width="1080" height="1080" viewBox="0 0 1080 1080" xml:space="preserve">
<desc>Created with Fabric.js 5.2.4</desc>
<defs>
</defs>
<rect x="0" y="0" width="100%" height="100%" fill="transparent"></rect>
<g transform="matrix(1 0 0 1 540 540)" id="3fc40a5f-3db0-49af-8bf0-191b21a0f80d"  >
<rect style="stroke: none; stroke-width: 1; stroke-dasharray: none; stroke-linecap: butt; stroke-dashoffset: 0; stroke-linejoin: miter; stroke-miterlimit: 4; fill: rgb(73,68,255); fill-rule: nonzero; opacity: 1;" vector-effect="non-scaling-stroke"  x="-540" y="-540" rx="0" ry="0" width="1080" height="1080" />
</g>
<g transform="matrix(1 0 0 1 540 540)" id="edc473bc-aa65-49f6-9dd5-24aab5d1a75c"  >
</g>
<g transform="matrix(14.62 0 0 14.62 517.88 540)"  >
<path style="stroke: rgb(0,0,0); stroke-width: 0; stroke-dasharray: none; stroke-linecap: butt; stroke-dashoffset: 0; stroke-linejoin: miter; stroke-miterlimit: 4; fill: rgb(0,0,0); fill-rule: nonzero; opacity: 1;" vector-effect="non-scaling-stroke"  transform=" translate(-25, -25)" d="M 44.082031 25.207031 L 46.902344 20.429688 C 47.015625 20.191406 47.03125 19.917969 46.945313 19.671875 L 41.359375 3.671875 C 41.1875 3.183594 40.675781 2.90625 40.179688 3.027344 L 23.761719 7.027344 C 23.449219 7.105469 23.191406 7.328125 23.070313 7.628906 L 21.324219 12 L 16 12 C 15.722656 12 15.453125 12.117188 15.265625 12.320313 L 3.265625 25.320313 C 2.894531 25.722656 2.914063 26.347656 3.308594 26.722656 L 15.894531 38.722656 C 16.078125 38.902344 16.328125 39 16.582031 39 L 22.320313 39 L 24.070313 43.371094 C 24.199219 43.695313 24.488281 43.925781 24.828125 43.984375 L 42.289063 46.984375 C 42.34375 46.996094 42.402344 47 42.457031 47 C 42.921875 47 43.332031 46.679688 43.433594 46.214844 L 46.976563 29.984375 C 47.03125 29.734375 46.988281 29.472656 46.851563 29.25 Z M 21.324219 12 L 35.417969 9.417969 L 28 24 L 11.167969 24 Z M 22.324219 39 L 11.167969 28 L 28 28 L 36.75 41.167969 Z M 40.386719 38.898438 L 32 26 L 39.332031 11.417969 L 44.082031 25.210938 Z" stroke-linecap="round" />
</g>
</svg>